<svg xmlns="http://www.w3.org/2000/svg" width="187" height="44" viewBox="0 0 187 44" fill="none">
  <g clip-path="url(#clip0_107_308)">
    <path d="M105.457 2.53198V14.3925H92.4116V2.53198H87.8806V30.9322H92.4116V19.0568H105.457V30.9322H110.003V2.53198H105.457Z" fill="#2CAAE2"/>
    <path d="M131.695 7.18144V2.53198H112.224V30.9322H131.695V26.2679H116.769V19.042H131.695V14.3777H116.769V7.18144H131.695Z" fill="#2CAAE2"/>
    <path d="M185.342 8.85465C184.246 6.91491 182.736 5.37496 180.84 4.23481C178.945 3.09466 176.872 2.53198 174.636 2.53198H162.287V30.9322H174.636C176.872 30.9322 178.93 30.3695 180.84 29.2293C182.736 28.0892 184.246 26.5492 185.342 24.6095C186.437 22.6698 187 20.5523 187 18.2572V15.2217C187 12.9118 186.437 10.7944 185.342 8.85465ZM182.454 18.2424C182.454 20.4339 181.684 22.3292 180.159 23.8988C178.634 25.4831 176.783 26.2679 174.651 26.2679H166.847V7.18144H174.651C176.798 7.18144 178.634 7.96622 180.159 9.55059C181.684 11.135 182.454 13.0155 182.454 15.2069V18.2424Z" fill="#2CAAE2"/>
    <path d="M72.9846 23.1881L69.1792 31.0507H76.7753L72.9846 23.1881Z" fill="#838383"/>
    <path d="M86.8441 31.0507H81.6024L79.0556 25.7349H79.0259L76.7752 21.0262L72.9846 13.1784L69.1643 21.0262H69.1792L66.9137 25.7349L64.3372 31.0507H59.0955L61.1388 26.8455L61.6867 25.7349L63.967 21.0262L70.3785 7.81823L72.9846 2.3988L75.5759 7.81823L81.8097 20.6857L81.9726 21.0262L84.2825 25.7349L84.8007 26.8455L86.474 30.3104L86.8441 31.0507Z" fill="#2CAAE2"/>
    <path d="M147.154 23.1881L143.363 31.0507H150.945L147.154 23.1881Z" fill="#838383"/>
    <path d="M161.013 31.0507H155.772L153.24 25.7349H153.21L150.945 21.0262H150.959L147.154 13.1784L143.334 21.0262H143.363L141.098 25.7349H141.083L138.521 31.0507H133.28L135.323 26.8455L135.871 25.7349L138.136 21.0262L144.548 7.81823L147.154 2.3988L149.745 7.81823L155.979 20.6857L156.157 21.0262L158.452 25.7349L158.97 26.8455L160.658 30.3104L161.013 31.0507Z" fill="#2CAAE2"/>
    <path d="M29.1406 20.6265C28.7408 22.0183 28.1337 23.3214 27.3045 24.5652C27.2897 24.5948 27.26 24.6244 27.2452 24.6688C25.9274 26.6382 24.2246 28.1929 22.1367 29.3331C20.0489 30.4732 17.7834 31.0507 15.3551 31.0507H14.3186C10.6464 31.0507 7.44802 29.8069 4.70869 27.3045C3.24277 25.9718 2.08781 24.3875 1.25861 22.5514C0.414601 20.7153 0 18.7756 0 16.7174C0 14.674 0.414601 12.7342 1.2438 10.8981C2.07301 9.06204 3.22797 7.47767 4.69388 6.13022C5.99691 4.96045 7.46282 4.0424 9.12123 3.39089C10.7796 2.73937 12.4973 2.3988 14.3037 2.3988H15.3402C18.2869 2.3988 20.967 3.22801 23.3806 4.88641C24.8613 5.90811 26.0903 7.10749 27.0675 8.51417H20.3451C20.197 8.42533 20.0489 8.33649 19.8861 8.24764C18.4794 7.47767 16.9542 7.09268 15.3254 7.09268H14.2889C11.6681 7.10749 9.40257 8.04034 7.52205 9.92086C5.64154 11.8014 4.69388 14.0669 4.69388 16.7025C4.69388 19.3382 5.64154 21.6185 7.52205 23.499C9.40257 25.3944 11.6681 26.3272 14.3037 26.3272H15.3402C16.969 26.3272 18.4942 25.9422 19.9009 25.1723C21.3075 24.4023 22.4625 23.351 23.3361 22.0331C23.6027 21.6333 23.8692 21.1595 24.1209 20.6116H17.1911C15.8881 20.6116 14.8368 19.5603 14.8368 18.2573C14.8368 17.6058 15.1033 17.0283 15.5179 16.5989C15.9473 16.1695 16.5248 15.903 17.1763 15.903H25.0242C25.0538 15.2514 25.1426 14.6147 25.2463 13.9928C25.2907 13.7411 25.3499 13.4894 25.4091 13.2525C25.572 12.601 25.7793 11.9642 26.031 11.3423C26.2828 10.7353 26.5789 10.143 26.9047 9.56548C27.0083 9.3878 27.497 8.61782 27.5858 8.48456C27.8819 8.06996 28.1929 7.65536 28.5335 7.27037C29.5552 6.11541 30.7397 5.13813 32.1168 4.33855C34.3083 3.05032 36.707 2.41361 39.2835 2.41361H40.3348C42.9112 2.41361 45.2952 3.05032 47.5015 4.33855C48.0197 4.63469 48.5084 4.96045 48.9674 5.31582L44.9398 8.27726C43.5628 7.50728 42.0376 7.1223 40.3496 7.1223H39.2983C36.6626 7.1223 34.3971 8.06996 32.5018 9.95047C31.8799 10.5724 31.3468 11.2387 30.9322 11.9494C30.6805 12.364 30.4732 12.8083 30.2955 13.2673C30.2067 13.5042 30.1178 13.7559 30.0438 14.0076C29.8217 14.7776 29.7032 15.5772 29.6736 16.4212V16.436C29.6736 16.5397 29.6736 16.6433 29.6736 16.747C29.6736 16.8506 29.6736 16.9543 29.6736 17.0579C29.644 18.2277 29.4663 19.4123 29.1406 20.6265Z" fill="#838383"/>
    <path d="M54.6682 16.7618C54.6682 16.9691 54.6682 17.1616 54.6534 17.3541C54.5646 19.7084 53.9279 21.8999 52.7433 23.9285C51.4699 26.1347 49.7226 27.882 47.5163 29.1554C45.3249 30.4436 42.9261 31.0803 40.3497 31.0803H39.2983C36.7219 31.0803 34.3231 30.4436 32.1317 29.1554C30.7398 28.341 29.5256 27.3341 28.5039 26.1495C28.6076 26.0015 28.7112 25.8534 28.8149 25.7053C29.7181 24.3727 30.414 22.9364 30.8731 21.4409C31.3025 22.1812 31.8503 22.892 32.5018 23.5435C34.3972 25.4388 36.6627 26.3865 39.2983 26.3865H40.3497C42.9853 26.3865 45.2508 25.4388 47.1313 23.5435C48.8638 21.7962 49.7966 19.7232 49.9447 17.3393C49.9595 17.1468 49.9595 16.9395 49.9595 16.747C49.9595 14.7628 49.4265 13.0008 48.3752 11.446C48.1827 11.1647 47.9754 10.8833 47.7384 10.6168L51.0256 7.22595C51.2626 7.49248 51.4699 7.75901 51.692 8.02554C52.0621 8.51418 52.4175 9.03243 52.7285 9.58029C54.0315 11.7866 54.6682 14.1853 54.6682 16.7618Z" fill="#838383"/>
    <path d="M58.0442 0L51.0404 7.22591L47.7532 10.6316L39.5944 19.0568L39.5352 16.0954L36.5737 15.7252L45.9023 8.89912L49.8262 6.02653L58.0442 0Z" fill="#2CAAE2"/>
    <path d="M54.668 16.7617C54.668 16.969 54.668 17.1615 54.6532 17.354H49.9446C49.9594 17.1615 49.9594 16.9542 49.9594 16.7617C49.9594 14.7776 49.4263 13.0155 48.375 11.4608C48.1825 11.1794 47.9752 10.8981 47.7383 10.6316L51.0255 7.24072C51.2624 7.50725 51.4697 7.77378 51.6918 8.04031C52.062 8.52895 52.4174 9.0472 52.7283 9.59507C54.0313 11.7865 54.668 14.1853 54.668 16.7617Z" fill="url(#paint0_linear_107_308)"/>
    <path d="M5.49349 43.6072H0.38501C0.38501 41.3268 0.38501 39.0465 0.38501 36.7662H5.5083V38.01H1.65843V39.5796H5.36023V40.779H1.65843V42.3485H5.49349V43.6072Z" fill="#2CAAE2"/>
    <path d="M11.1944 36.7662H12.4826V43.6072H11.683V43.622L8.08486 39.0021V43.6072H6.79663V36.7662H7.84794L11.1944 41.0159V36.7662Z" fill="#2CAAE2"/>
    <path d="M19.6787 40.1422C19.7083 41.8747 18.657 43.6219 16.2582 43.6219C15.4142 43.6219 14.4073 43.6219 13.5781 43.6219V36.781C14.4221 36.781 15.429 36.781 16.2582 36.781C18.6126 36.781 19.6491 38.4394 19.6787 40.1422ZM14.8515 42.3781H16.2582C17.813 42.3781 18.4201 41.238 18.3905 40.1274C18.3608 39.0613 17.7389 37.9952 16.2582 37.9952H14.8515V42.3781Z" fill="#2CAAE2"/>
    <path d="M20.3894 39.8757H23.9876V40.9715H20.3894V39.8757Z" fill="#2CAAE2"/>
    <path d="M26.7715 37.9508H24.6096V36.781C26.579 36.781 28.2522 36.781 30.2364 36.781V37.9508H28.0745V43.6219H26.7863V37.9508H26.7715Z" fill="#2CAAE2"/>
    <path d="M37.7288 40.2311C37.714 41.9932 36.6183 43.7701 34.2195 43.7701C31.8207 43.7701 30.7102 42.0376 30.7102 40.2459C30.7102 38.4543 31.8652 36.6478 34.2195 36.6478C36.5739 36.633 37.7436 38.4395 37.7288 40.2311ZM31.9836 40.2607C32.0132 41.3861 32.6203 42.5855 34.2343 42.5855C35.8483 42.5855 36.4554 41.3713 36.4702 40.2459C36.485 39.091 35.8483 37.8028 34.2343 37.8028C32.6055 37.8176 31.954 39.1058 31.9836 40.2607Z" fill="#2CAAE2"/>
    <path d="M38.5432 39.8757H42.1414V40.9715H38.5432V39.8757Z" fill="#2CAAE2"/>
    <path d="M48.2419 43.6072H43.1187C43.1187 41.3268 43.1187 39.0465 43.1187 36.7662H48.2419V38.01H44.4069V39.5796H48.1087V40.779H44.4069V42.3485H48.2419V43.6072Z" fill="#2CAAE2"/>
    <path d="M53.9427 36.7662H55.2309V43.6072H54.4313V43.622L50.8331 39.0021V43.6072H49.5449V36.7662H50.5962L53.9427 41.0011V36.7662Z" fill="#2CAAE2"/>
    <path d="M62.4272 40.1422C62.4568 41.8747 61.4055 43.6219 59.0068 43.6219C58.1628 43.6219 57.1559 43.6219 56.3267 43.6219V36.781C57.1707 36.781 58.1776 36.781 59.0068 36.781C61.3611 36.781 62.3976 38.4394 62.4272 40.1422ZM57.6001 42.3781H59.0068C60.5615 42.3781 61.1686 41.238 61.139 40.1274C61.1094 39.0613 60.4875 37.9952 59.0068 37.9952H57.6001V42.3781Z" fill="#2CAAE2"/>
    <path d="M68.4684 41.6082H66.5287V43.622H65.2405V36.781C66.3214 36.781 67.3875 36.7662 68.4684 36.7662C71.8149 36.7662 71.8297 41.6082 68.4684 41.6082ZM66.5435 40.4236H68.4833C70.1269 40.4236 70.1269 37.9952 68.4833 37.9952H66.5435V40.4236Z" fill="#2CAAE2"/>
    <path d="M77.9155 43.6072H76.3756L74.3766 41.3268H73.1476V43.6072H71.8594V36.7662C72.9403 36.7662 74.0212 36.781 75.117 36.781C76.7309 36.7958 77.575 37.862 77.575 39.0465C77.575 39.9794 77.1455 40.9271 75.8425 41.1936L77.9155 43.5331V43.6072ZM73.1476 37.9804V40.1719H75.117C75.9314 40.1719 76.2867 39.624 76.2867 39.0762C76.2867 38.5283 75.9314 37.9804 75.117 37.9804H73.1476Z" fill="#2CAAE2"/>
    <path d="M85.171 40.2311C85.1561 41.9932 84.0604 43.7701 81.6616 43.7701C79.2629 43.7701 78.1523 42.0376 78.1523 40.2459C78.1523 38.4543 79.3073 36.6478 81.6616 36.6478C84.016 36.633 85.1858 38.4395 85.171 40.2311ZM79.411 40.2607C79.4406 41.3861 80.0477 42.5855 81.6616 42.5855C83.2756 42.5855 83.8827 41.3713 83.8975 40.2459C83.9123 39.091 83.2756 37.8028 81.6616 37.8028C80.0477 37.8176 79.3813 39.1058 79.411 40.2607Z" fill="#2CAAE2"/>
    <path d="M91.8491 40.6901C91.8491 42.4522 90.7238 43.7404 88.8433 43.7404C87.096 43.7404 85.8374 42.6891 85.8374 40.7642H87.1108C87.1108 41.9339 87.6735 42.5262 88.8433 42.5262C90.013 42.5262 90.5609 41.7118 90.5609 40.6753V37.9656H88.5027V36.7662C89.6132 36.7662 90.7238 36.7662 91.8491 36.7662V40.6901Z" fill="#2CAAE2"/>
    <path d="M98.157 43.6072H93.0337C93.0337 41.3268 93.0337 39.0465 93.0337 36.7662H98.157V38.01H94.3219V39.5796H98.0237V40.779H94.3219V42.3485H98.157V43.6072Z" fill="#2CAAE2"/>
    <path d="M105.175 42.7483C104.48 43.4442 103.561 43.77 102.584 43.77C100.037 43.77 98.9712 42.0227 98.9564 40.2458C98.9416 38.4542 100.111 36.6477 102.584 36.6477C103.517 36.6477 104.391 37.0031 105.101 37.699L104.243 38.5282C103.798 38.084 103.191 37.8767 102.599 37.8767C100.955 37.8767 100.23 39.1057 100.245 40.2458C100.259 41.386 100.911 42.5558 102.599 42.5558C103.191 42.5558 103.872 42.3189 104.317 41.8598L105.175 42.7483Z" fill="#2CAAE2"/>
    <path d="M107.574 37.9508H105.412V36.781C107.382 36.781 109.055 36.781 111.039 36.781V37.9508H108.877V43.6219H107.589V37.9508H107.574Z" fill="#2CAAE2"/>
    <path d="M119.198 41.623C119.198 42.0228 119.375 42.3634 119.82 42.3634V43.6368C119.316 43.6368 118.739 43.5183 118.531 42.7335C118.087 43.4591 117.302 43.696 116.577 43.696C115.081 43.696 113.867 43.2222 113.867 41.5342C113.867 40.9567 114.282 40.32 114.918 40.1127C114.297 39.9202 114 39.2687 114 38.7208C114.015 37.2697 115.392 36.6626 116.607 36.6626C117.791 36.6626 119.094 37.1216 119.109 38.6023H117.895C117.895 37.9804 117.273 37.7583 116.592 37.7583C115.585 37.7583 115.259 38.321 115.259 38.7208C115.259 39.4167 116.118 39.6092 116.577 39.6092C117.643 39.6092 118.709 39.6092 119.775 39.6092V40.6309H119.198V41.623ZM115.126 41.549C115.126 42.2745 115.837 42.5559 116.547 42.5559C117.006 42.5559 117.969 42.3189 117.969 41.623V40.6309C117.465 40.6309 116.977 40.6309 116.488 40.6309C115.54 40.6309 115.126 41.1344 115.126 41.549Z" fill="#2CAAE2"/>
    <path d="M128.393 38.7652C128.393 39.2982 128.142 39.8017 127.505 40.083C128.304 40.3199 128.601 41.1787 128.601 41.6082C128.601 43.1333 127.46 43.6219 126.039 43.6219C124.958 43.6219 123.877 43.6219 122.796 43.6219V36.781C123.877 36.781 124.958 36.781 126.039 36.781C127.386 36.781 128.393 37.3881 128.393 38.7652ZM124.07 39.5203H126.039C126.853 39.5203 127.12 39.1798 127.12 38.7948C127.12 38.4838 126.868 37.9508 126.039 37.9508H124.07V39.5203ZM124.07 42.4077H126.039C126.572 42.4077 127.312 42.2301 127.312 41.5933C127.312 40.9714 126.557 40.6605 126.039 40.6605H124.07V42.4077Z" fill="#2CAAE2"/>
    <path d="M129.519 43.6072V36.7662H130.792V43.6072H129.519Z" fill="#2CAAE2"/>
    <path d="M131.903 36.781H137.159V37.3881L133.62 42.3929H137.159V43.6071H131.814V42.8668L135.279 37.9804H131.903V36.781Z" fill="#2CAAE2"/>
    <path d="M144.133 38.4246C143.896 38.0396 143.26 37.6694 142.504 37.6694C141.542 37.6694 141.083 38.0692 141.083 38.5727C141.083 39.165 141.779 39.3279 142.608 39.4315C144.03 39.6092 145.362 39.9794 145.362 41.6082C145.362 43.1333 144.015 43.7848 142.49 43.7848C141.098 43.7848 140.017 43.3554 139.513 42.1116L140.594 41.5489C140.89 42.3041 141.69 42.6299 142.519 42.6299C143.334 42.6299 144.089 42.3485 144.089 41.6082C144.089 40.9566 143.408 40.7049 142.504 40.6013C141.113 40.4384 139.824 40.0682 139.824 38.5283C139.824 37.1216 141.216 36.5441 142.475 36.5293C143.541 36.5293 144.637 36.8254 145.155 37.8916L144.133 38.4246Z" fill="#2CAAE2"/>
    <path d="M152.366 36.781V40.7049C152.366 42.7335 151.122 43.7552 149.405 43.7552C147.761 43.7552 146.369 42.7631 146.369 40.7049V36.781H147.643V40.7049C147.643 41.9339 148.353 42.5854 149.405 42.5854C150.471 42.5854 151.078 41.8747 151.078 40.7049V36.781H152.366Z" fill="#2CAAE2"/>
    <path d="M156.838 41.6082H154.898V43.622H153.61V36.781C154.691 36.781 155.757 36.7662 156.838 36.7662C160.184 36.7662 160.199 41.6082 156.838 41.6082ZM154.913 40.4236H156.853C158.496 40.4236 158.496 37.9952 156.853 37.9952H154.913V40.4236Z" fill="#2CAAE2"/>
    <path d="M163.442 41.6082H161.502V43.622H160.214V36.781C161.295 36.781 162.361 36.7662 163.442 36.7662C166.788 36.7662 166.803 41.6082 163.442 41.6082ZM161.517 40.4236H163.457C165.1 40.4236 165.1 37.9952 163.457 37.9952H161.517V40.4236Z" fill="#2CAAE2"/>
    <path d="M173.54 40.2311C173.526 41.9932 172.43 43.7701 170.031 43.7701C167.632 43.7701 166.522 42.0376 166.522 40.2459C166.522 38.4543 167.677 36.6478 170.031 36.6478C172.4 36.633 173.57 38.4395 173.54 40.2311ZM167.795 40.2607C167.825 41.3861 168.432 42.5855 170.046 42.5855C171.66 42.5855 172.267 41.3713 172.282 40.2459C172.297 39.091 171.66 37.8028 170.046 37.8028C168.432 37.8176 167.766 39.1058 167.795 40.2607Z" fill="#2CAAE2"/>
    <path d="M180.559 43.6072H179.019L177.02 41.3268H175.776V43.6072H174.488V36.7662C175.569 36.7662 176.65 36.781 177.746 36.781C179.36 36.7958 180.204 37.862 180.204 39.0465C180.204 39.9794 179.774 40.9271 178.471 41.1936L180.544 43.5331V43.6072H180.559ZM175.791 37.9804V40.1719H177.76C178.575 40.1719 178.93 39.624 178.93 39.0762C178.93 38.5283 178.575 37.9804 177.76 37.9804H175.791Z" fill="#2CAAE2"/>
    <path d="M183.15 37.9508H180.988V36.781C182.958 36.781 184.631 36.781 186.615 36.781V37.9508H184.453V43.6219H183.165V37.9508H183.15Z" fill="#2CAAE2"/>
  </g>
  <defs>
    <linearGradient id="paint0_linear_107_308" x1="49.7527" y1="8.14725" x2="52.7771" y2="17.271" gradientUnits="userSpaceOnUse">
      <stop offset="2.7e-07" stop-color="#2CAAE2"/>
      <stop offset="1" stop-color="#838383" stop-opacity="0.5"/>
    </linearGradient>
    <clipPath id="clip0_107_308">
      <rect width="187" height="43.7849" fill="white"/>
    </clipPath>
  </defs>
</svg>