<svg width="130" height="31" viewBox="0 0 130 31" fill="none" xmlns="http://www.w3.org/2000/svg">
<g clip-path="url(#clip0_148_51)">
<path d="M73.3125 1.76025V10.0056H64.2436V1.76025H61.0938V21.5037H64.2436V13.2481H73.3125V21.5037H76.4726V1.76025H73.3125Z" fill="white"/>
<path d="M91.5529 4.9925V1.76025H78.0166V21.5037H91.5529V18.2612H81.1768V13.2378H91.5529V9.99527H81.1768V4.9925H91.5529Z" fill="white"/>
<path d="M128.847 6.15569C128.085 4.80721 127.036 3.73666 125.718 2.94404C124.4 2.15142 122.959 1.76025 121.405 1.76025H112.82V21.5037H121.405C122.959 21.5037 124.39 21.1125 125.718 20.3199C127.036 19.5273 128.085 18.4567 128.847 17.1083C129.609 15.7598 130 14.2878 130 12.6922V10.582C130 8.97619 129.609 7.50418 128.847 6.15569ZM126.84 12.6819C126.84 14.2054 126.305 15.523 125.244 16.6142C124.184 17.7156 122.897 18.2612 121.415 18.2612H115.99V4.9925H121.415C122.908 4.9925 124.184 5.53807 125.244 6.6395C126.305 7.74093 126.84 9.04824 126.84 10.5717V12.6819Z" fill="white"/>
<path d="M50.7383 16.12L48.0928 21.586H53.3735L50.7383 16.12Z" fill="#FCFCFC"/>
<path d="M60.373 21.586H56.729L54.9585 17.8906H54.9379L53.3733 14.6172L50.7381 9.16147L48.0823 14.6172H48.0926L46.5176 17.8906L44.7265 21.586H41.0825L42.5031 18.6626L42.8839 17.8906L44.4692 14.6172L48.9264 5.43512L50.7381 1.6676L52.5395 5.43512L56.8732 14.3804L56.9864 14.6172L58.5922 17.8906L58.9525 18.6626L60.1157 21.0714L60.373 21.586Z" fill="white"/>
<path d="M102.3 16.12L99.6646 21.586H104.935L102.3 16.12Z" fill="#FCFCFC"/>
<path d="M111.935 21.586H108.291L106.53 17.8906H106.51L104.935 14.6172H104.945L102.3 9.16147L99.6438 14.6172H99.6644L98.0894 17.8906H98.0791L96.2983 21.586H92.6543L94.0748 18.6626L94.4557 17.8906L96.0307 14.6172L100.488 5.43512L102.3 1.6676L104.101 5.43512L108.435 14.3804L108.558 14.6172L110.154 17.8906L110.514 18.6626L111.687 21.0714L111.935 21.586Z" fill="white"/>
<path d="M20.2581 14.3392C19.9802 15.3068 19.5582 16.2127 18.9817 17.0774C18.9714 17.098 18.9508 17.1185 18.9405 17.1494C18.0244 18.5185 16.8406 19.5993 15.3892 20.392C13.9378 21.1846 12.3628 21.586 10.6746 21.586H9.95407C7.40122 21.586 5.17777 20.7214 3.27342 18.9817C2.25434 18.0553 1.45142 16.9538 0.87497 15.6774C0.288226 14.401 0 13.0525 0 11.6217C0 10.2011 0.288225 8.85265 0.864677 7.57623C1.44113 6.2998 2.24404 5.19837 3.26312 4.26163C4.16898 3.44842 5.18806 2.81021 6.34096 2.35728C7.49386 1.90436 8.68794 1.6676 9.94378 1.6676H10.6643C12.7128 1.6676 14.576 2.24405 16.2539 3.39696C17.2832 4.10723 18.1376 4.94102 18.817 5.91893H14.1436C14.0407 5.85717 13.9378 5.7954 13.8245 5.73364C12.8466 5.19837 11.7864 4.93073 10.6541 4.93073H9.93349C8.11149 4.94102 6.53654 5.58953 5.22923 6.89684C3.92193 8.20415 3.26312 9.77909 3.26312 11.6114C3.26312 13.4437 3.92193 15.0289 5.22923 16.3362C6.53654 17.6538 8.11149 18.3023 9.94378 18.3023H10.6643C11.7967 18.3023 12.8569 18.0347 13.8348 17.4994C14.8127 16.9641 15.6156 16.2333 16.223 15.3171C16.4083 15.0392 16.5936 14.7098 16.7685 14.3289H11.9511C11.0452 14.3289 10.3144 13.5981 10.3144 12.6922C10.3144 12.2393 10.4996 11.8378 10.7879 11.5393C11.0864 11.2408 11.4878 11.0555 11.9408 11.0555H17.3965C17.4171 10.6026 17.4788 10.16 17.5509 9.72762C17.5818 9.55263 17.6229 9.37764 17.6641 9.21294C17.7773 8.76001 17.9215 8.31738 18.0964 7.88504C18.2714 7.46299 18.4773 7.05124 18.7038 6.64979C18.7758 6.52626 19.1155 5.99099 19.1773 5.89834C19.3832 5.61012 19.5993 5.32189 19.8361 5.05425C20.5464 4.25134 21.3699 3.57195 22.3272 3.01609C23.8507 2.12053 25.5183 1.6779 27.3094 1.6779H28.0402C29.8313 1.6779 31.4886 2.12053 33.0224 3.01609C33.3827 3.22196 33.7224 3.44842 34.0415 3.69547L31.2416 5.75423C30.2843 5.21895 29.224 4.95131 28.0505 4.95131H27.3197C25.4874 4.95131 23.9124 5.61012 22.5948 6.91742C22.1625 7.34976 21.7919 7.81298 21.5037 8.30708C21.3287 8.59531 21.1846 8.90412 21.0611 9.22323C20.9993 9.38793 20.9375 9.56292 20.8861 9.73792C20.7316 10.2732 20.6493 10.8291 20.6287 11.4158V11.4261C20.6287 11.4982 20.6287 11.5702 20.6287 11.6423C20.6287 11.7143 20.6287 11.7864 20.6287 11.8584C20.6081 12.6716 20.4846 13.4951 20.2581 14.3392Z" fill="#FCFCFC"/>
<path d="M38.0045 11.6525C38.0045 11.7966 38.0045 11.9304 37.9942 12.0643C37.9325 13.701 37.4898 15.2244 36.6663 16.6347C35.7811 18.1685 34.5664 19.3831 33.0326 20.2684C31.5091 21.1639 29.8416 21.6066 28.0504 21.6066H27.3196C25.5285 21.6066 23.8609 21.1639 22.3374 20.2684C21.3698 19.7022 20.5257 19.0023 19.8154 18.1788C19.8875 18.0758 19.9595 17.9729 20.0316 17.8699C20.6595 16.9435 21.1433 15.945 21.4624 14.9053C21.761 15.42 22.1418 15.9141 22.5947 16.367C23.9123 17.6847 25.4873 18.3435 27.3196 18.3435H28.0504C29.8827 18.3435 31.4577 17.6847 32.765 16.367C33.9694 15.1524 34.6179 13.7113 34.7208 12.054C34.7311 11.9201 34.7311 11.776 34.7311 11.6422C34.7311 10.2628 34.3605 9.03789 33.6297 7.95704C33.4958 7.76146 33.3517 7.56588 33.187 7.38059L35.4723 5.02332C35.637 5.2086 35.7811 5.39389 35.9355 5.57918C36.1928 5.91887 36.4399 6.27915 36.656 6.66002C37.5619 8.1938 38.0045 9.86139 38.0045 11.6525Z" fill="#FCFCFC"/>
<path d="M40.3517 0L35.4828 5.02336L33.1976 7.39093L27.5257 13.2481L27.4845 11.1893L25.4258 10.932L31.9109 6.18655L34.6387 4.18956L40.3517 0Z" fill="white"/>
<path d="M38.0045 11.6526C38.0045 11.7967 38.0045 11.9305 37.9942 12.0643H34.7208C34.7311 11.9305 34.7311 11.7864 34.7311 11.6526C34.7311 10.2732 34.3605 9.04826 33.6296 7.96742C33.4958 7.77183 33.3517 7.57625 33.187 7.39096L35.4722 5.03369C35.6369 5.21898 35.781 5.40427 35.9354 5.58955C36.1928 5.92925 36.4398 6.28953 36.656 6.6704C37.5619 8.19388 38.0045 9.86147 38.0045 11.6526Z" fill="url(#paint0_linear_148_51)"/>
<path d="M3.81893 30.3152H0.267578C0.267578 28.7299 0.267578 27.1447 0.267578 25.5594H3.82922V26.4241H1.15284V27.5153H3.72628V28.3491H1.15284V29.4402H3.81893V30.3152Z" fill="white"/>
<path d="M7.78186 25.5594H8.67742V30.3152H8.12155V30.3255L5.62017 27.1138V30.3152H4.72461V25.5594H5.45547L7.78186 28.5138V25.5594Z" fill="white"/>
<path d="M13.6805 27.9065C13.7011 29.1109 12.9702 30.3255 11.3026 30.3255C10.7159 30.3255 10.0159 30.3255 9.43945 30.3255V25.5698C10.0262 25.5698 10.7262 25.5698 11.3026 25.5698C12.9393 25.5698 13.6599 26.7227 13.6805 27.9065ZM10.3247 29.4609H11.3026C12.3835 29.4609 12.8055 28.6682 12.7849 27.8962C12.7643 27.1551 12.332 26.4139 11.3026 26.4139H10.3247V29.4609Z" fill="white"/>
<path d="M14.1743 27.7212H16.6757V28.4829H14.1743V27.7212Z" fill="white"/>
<path d="M18.6113 26.383H17.1084V25.5698C18.4775 25.5698 19.6407 25.5698 21.02 25.5698V26.383H19.5171V30.3255H18.6216V26.383H18.6113Z" fill="white"/>
<path d="M26.2284 27.9682C26.2181 29.1932 25.4563 30.4284 23.7887 30.4284C22.1212 30.4284 21.3491 29.224 21.3491 27.9785C21.3491 26.733 22.152 25.4771 23.7887 25.4771C25.4255 25.4668 26.2387 26.7227 26.2284 27.9682ZM22.2344 27.9888C22.255 28.7711 22.677 29.6049 23.799 29.6049C24.9211 29.6049 25.3431 28.7608 25.3534 27.9785C25.3637 27.1756 24.9211 26.28 23.799 26.28C22.6667 26.2903 22.2138 27.1859 22.2344 27.9888Z" fill="white"/>
<path d="M26.7944 27.7212H29.2958V28.4829H26.7944V27.7212Z" fill="white"/>
<path d="M33.5372 30.3152H29.9756C29.9756 28.7299 29.9756 27.1447 29.9756 25.5594H33.5372V26.4241H30.8711V27.5153H33.4446V28.3491H30.8711V29.4402H33.5372V30.3152Z" fill="white"/>
<path d="M37.5001 25.5594H38.3957V30.3152H37.8398V30.3255L35.3384 27.1138V30.3152H34.4429V25.5594H35.1737L37.5001 28.5035V25.5594Z" fill="white"/>
<path d="M43.3983 27.9065C43.4188 29.1109 42.688 30.3255 41.0204 30.3255C40.4337 30.3255 39.7337 30.3255 39.1572 30.3255V25.5698C39.744 25.5698 40.4439 25.5698 41.0204 25.5698C42.6571 25.5698 43.3777 26.7227 43.3983 27.9065ZM40.0425 29.4609H41.0204C42.1012 29.4609 42.5233 28.6682 42.5027 27.8962C42.4821 27.1551 42.0498 26.4139 41.0204 26.4139H40.0425V29.4609Z" fill="white"/>
<path d="M47.5985 28.9255H46.25V30.3255H45.3545V25.5697C46.1059 25.5697 46.8471 25.5594 47.5985 25.5594C49.9249 25.5594 49.9352 28.9255 47.5985 28.9255ZM46.2603 28.102H47.6088C48.7514 28.102 48.7514 26.4138 47.6088 26.4138H46.2603V28.102Z" fill="white"/>
<path d="M54.1657 30.3152H53.0952L51.7055 28.7299H50.8511V30.3152H49.9556V25.5594C50.707 25.5594 51.4585 25.5697 52.2202 25.5697C53.3422 25.58 53.929 26.3212 53.929 27.1447C53.929 27.7932 53.6304 28.452 52.7246 28.6373L54.1657 30.2637V30.3152ZM50.8511 26.4035V27.927H52.2202C52.7864 27.927 53.0334 27.5461 53.0334 27.1653C53.0334 26.7844 52.7864 26.4035 52.2202 26.4035H50.8511Z" fill="white"/>
<path d="M59.2098 27.9682C59.1995 29.1932 58.4378 30.4284 56.7702 30.4284C55.1026 30.4284 54.3306 29.224 54.3306 27.9785C54.3306 26.733 55.1335 25.4771 56.7702 25.4771C58.4069 25.4668 59.2201 26.7227 59.2098 27.9682ZM55.2055 27.9888C55.2261 28.7711 55.6482 29.6049 56.7702 29.6049C57.8922 29.6049 58.3143 28.7608 58.3245 27.9785C58.3348 27.1756 57.8922 26.28 56.7702 26.28C55.6482 26.2903 55.1849 27.1859 55.2055 27.9888Z" fill="white"/>
<path d="M63.8521 28.2873C63.8521 29.5123 63.0698 30.4078 61.7625 30.4078C60.5478 30.4078 59.6729 29.677 59.6729 28.3388H60.5581C60.5581 29.152 60.9493 29.5637 61.7625 29.5637C62.5757 29.5637 62.9566 28.9976 62.9566 28.277V26.3932H61.5257V25.5594C62.2978 25.5594 63.0698 25.5594 63.8521 25.5594V28.2873Z" fill="white"/>
<path d="M68.2374 30.3152H64.6758C64.6758 28.7299 64.6758 27.1447 64.6758 25.5594H68.2374V26.4241H65.5713V27.5153H68.1448V28.3491H65.5713V29.4402H68.2374V30.3152Z" fill="white"/>
<path d="M73.1164 29.7182C72.6326 30.202 71.9944 30.4285 71.315 30.4285C69.5445 30.4285 68.8034 29.2138 68.7931 27.9786C68.7828 26.733 69.596 25.4772 71.315 25.4772C71.9635 25.4772 72.5709 25.7242 73.065 26.208L72.4679 26.7845C72.1591 26.4757 71.7371 26.3316 71.3253 26.3316C70.1827 26.3316 69.6783 27.1859 69.6886 27.9786C69.6989 28.7712 70.1518 29.5844 71.3253 29.5844C71.7371 29.5844 72.2106 29.4197 72.5194 29.1006L73.1164 29.7182Z" fill="white"/>
<path d="M74.7841 26.383H73.2812V25.5698C74.6503 25.5698 75.8135 25.5698 77.1929 25.5698V26.383H75.69V30.3255H74.7944V26.383H74.7841Z" fill="white"/>
<path d="M82.8649 28.9358C82.8649 29.2138 82.9885 29.4505 83.2973 29.4505V30.3358C82.9473 30.3358 82.5458 30.2534 82.4017 29.7079C82.0929 30.2123 81.5473 30.377 81.0429 30.377C80.0033 30.377 79.1592 30.0476 79.1592 28.8741C79.1592 28.4726 79.4474 28.03 79.89 27.8859C79.4577 27.7521 79.2518 27.2991 79.2518 26.9183C79.2621 25.9095 80.2194 25.4874 81.0635 25.4874C81.887 25.4874 82.7929 25.8065 82.8032 26.8359H81.9591C81.9591 26.4036 81.5267 26.2492 81.0532 26.2492C80.3533 26.2492 80.1268 26.6403 80.1268 26.9183C80.1268 27.4021 80.7238 27.5359 81.0429 27.5359C81.7841 27.5359 82.5252 27.5359 83.2664 27.5359V28.2462H82.8649V28.9358ZM80.0341 28.8844C80.0341 29.3888 80.5282 29.5843 81.0223 29.5843C81.3415 29.5843 82.0106 29.4196 82.0106 28.9358V28.2462C81.6606 28.2462 81.3209 28.2462 80.9812 28.2462C80.3224 28.2462 80.0341 28.5961 80.0341 28.8844Z" fill="white"/>
<path d="M89.2573 26.9492C89.2573 27.3198 89.0823 27.6698 88.6396 27.8653C89.1955 28.03 89.4014 28.6271 89.4014 28.9256C89.4014 29.9859 88.6088 30.3255 87.6205 30.3255C86.8691 30.3255 86.1177 30.3255 85.3662 30.3255V25.5698C86.1177 25.5698 86.8691 25.5698 87.6205 25.5698C88.5573 25.5698 89.2573 25.9919 89.2573 26.9492ZM86.2515 27.4742H87.6205C88.1867 27.4742 88.372 27.2374 88.372 26.9698C88.372 26.7536 88.197 26.383 87.6205 26.383H86.2515V27.4742ZM86.2515 29.4815H87.6205C87.9911 29.4815 88.5058 29.3579 88.5058 28.9153C88.5058 28.483 87.9808 28.2668 87.6205 28.2668H86.2515V29.4815Z" fill="white"/>
<path d="M90.0396 30.3152V25.5594H90.9248V30.3152H90.0396Z" fill="white"/>
<path d="M91.697 25.5698H95.3513V25.9919L92.8911 29.4712H95.3513V30.3153H91.6353V29.8006L94.044 26.4036H91.697V25.5698Z" fill="white"/>
<path d="M100.199 26.7124C100.035 26.4447 99.5921 26.1874 99.0671 26.1874C98.398 26.1874 98.0789 26.4653 98.0789 26.8153C98.0789 27.2271 98.5627 27.3403 99.1392 27.4124C100.127 27.5359 101.054 27.7932 101.054 28.9255C101.054 29.9858 100.117 30.4387 99.0568 30.4387C98.0892 30.4387 97.3378 30.1402 96.9878 29.2755L97.7392 28.8844C97.9451 29.4093 98.501 29.6358 99.0774 29.6358C99.6436 29.6358 100.169 29.4402 100.169 28.9255C100.169 28.4726 99.6951 28.2976 99.0671 28.2256C98.0995 28.1123 97.204 27.855 97.204 26.7844C97.204 25.8065 98.1716 25.4051 99.0465 25.3948C99.7877 25.3948 100.549 25.6007 100.91 26.3418L100.199 26.7124Z" fill="white"/>
<path d="M105.923 25.5698V28.2977C105.923 29.7079 105.058 30.4182 103.864 30.4182C102.722 30.4182 101.754 29.7285 101.754 28.2977V25.5698H102.639V28.2977C102.639 29.1521 103.133 29.605 103.864 29.605C104.605 29.605 105.027 29.1109 105.027 28.2977V25.5698H105.923Z" fill="white"/>
<path d="M109.032 28.9255H107.683V30.3255H106.788V25.5697C107.539 25.5697 108.28 25.5594 109.032 25.5594C111.358 25.5594 111.368 28.9255 109.032 28.9255ZM107.693 28.102H109.042C110.185 28.102 110.185 26.4138 109.042 26.4138H107.693V28.102Z" fill="white"/>
<path d="M113.622 28.9255H112.274V30.3255H111.378V25.5697C112.13 25.5697 112.871 25.5594 113.622 25.5594C115.949 25.5594 115.959 28.9255 113.622 28.9255ZM112.284 28.102H113.633C114.775 28.102 114.775 26.4138 113.633 26.4138H112.284V28.102Z" fill="white"/>
<path d="M120.643 27.9682C120.633 29.1932 119.871 30.4284 118.203 30.4284C116.536 30.4284 115.764 29.224 115.764 27.9785C115.764 26.733 116.567 25.4771 118.203 25.4771C119.85 25.4668 120.664 26.7227 120.643 27.9682ZM116.649 27.9888C116.67 28.7711 117.092 29.6049 118.214 29.6049C119.336 29.6049 119.758 28.7608 119.768 27.9785C119.778 27.1756 119.336 26.28 118.214 26.28C117.092 26.2903 116.628 27.1859 116.649 27.9888Z" fill="white"/>
<path d="M125.522 30.3152H124.452L123.062 28.7299H122.197V30.3152H121.302V25.5594C122.053 25.5594 122.805 25.5697 123.566 25.5697C124.688 25.58 125.275 26.3212 125.275 27.1447C125.275 27.7932 124.977 28.452 124.071 28.6373L125.512 30.2637V30.3152H125.522ZM122.208 26.4035V27.927H123.577C124.143 27.927 124.39 27.5461 124.39 27.1653C124.39 26.7844 124.143 26.4035 123.577 26.4035H122.208Z" fill="white"/>
<path d="M127.324 26.383H125.821V25.5698C127.19 25.5698 128.353 25.5698 129.732 25.5698V26.383H128.23V30.3255H127.334V26.383H127.324Z" fill="white"/>
</g>
<defs>
<linearGradient id="paint0_linear_148_51" x1="34.5874" y1="5.6639" x2="36.6899" y2="12.0066" gradientUnits="userSpaceOnUse">
<stop offset="2.7e-07" stop-color="white"/>
<stop offset="1" stop-color="#838383" stop-opacity="0.5"/>
</linearGradient>
<clipPath id="clip0_148_51">
<rect width="130" height="30.4387" fill="white"/>
</clipPath>
</defs>
</svg>
